<?xml version="1.0" encoding="iso-8859-1"?>
<!-- Generator: Adobe Illustrator 19.0.0, SVG Export Plug-In . SVG Version: 6.00 Build 0)  -->
<svg version="1.1" id="Capa_1" xmlns="http://www.w3.org/2000/svg" xmlns:xlink="http://www.w3.org/1999/xlink" x="0px" y="0px"
	 viewBox="0 0 512 512" style="enable-background:new 0 0 512 512;" xml:space="preserve">
<path style="fill:#AD4756;" d="M456.091,377.021l-202.018,1.029l-198.164-1.029c-13.891,0-25.153-11.262-25.153-25.153l0,0
	c0-13.891,11.262-25.153,25.153-25.153l198.164-1.029l202.018,1.029c13.891,0,25.153,11.262,25.153,25.153l0,0
	C481.244,365.76,469.982,377.021,456.091,377.021z"/>
<path style="fill:#BB6976;" d="M446.96,297.487H66.867c-11.468,0-20.765-9.297-20.765-20.765l0,0
	c0-11.468,9.297-20.765,20.765-20.765l189.14-1.029l190.952,1.029c11.468,0,20.765,9.297,20.765,20.765l0,0
	C467.726,288.19,458.428,297.487,446.96,297.487z"/>
<path style="fill:#AD4756;" d="M446.96,255.956h-60.702c11.468,0,20.765,9.297,20.765,20.765l0,0
	c0,11.469-9.297,20.766-20.765,20.766h60.702c11.468,0,20.765-9.297,20.765-20.766l0,0
	C467.726,265.253,458.428,255.956,446.96,255.956z"/>
<path style="fill:#F5D66C;" d="M458.916,255.956H58.565c-12.331,0-22.327-9.997-22.327-22.327v-2.002
	c0-98.618,79.947-178.564,178.564-178.564h87.878c98.618,0,178.564,79.946,178.564,178.564v2.002
	C481.244,245.96,471.247,255.956,458.916,255.956z"/>
<path style="fill:#BB6976;" d="M446.96,418.552l-188.735,3.088l-191.358-3.088c-11.468,0-20.765-9.297-20.765-20.765l0,0
	c0-11.468,9.297-20.765,20.765-20.765h380.094c11.468,0,20.765,9.297,20.765,20.765l0,0
	C467.726,409.256,458.428,418.552,446.96,418.552z"/>
<path style="fill:#EDCC7A;" d="M453.085,297.487H61.156c-7.883,0-14.666,6.058-15.038,13.933
	c-0.396,8.407,6.303,15.349,14.624,15.349h161.582c2.331,0,4.639,0.472,6.783,1.387l39.678,16.947
	c4.495,1.92,9.51,2.252,14.219,0.942L350,327.401c1.508-0.42,3.065-0.632,4.63-0.632h98.042c7.883,0,14.666-6.058,15.038-13.933
	C468.105,304.429,461.405,297.487,453.085,297.487z"/>
<path style="fill:#AD4756;" d="M446.96,377.021h-60.702c11.468,0,20.765,9.298,20.765,20.765c0,11.469-9.297,20.766-20.765,20.766
	h60.702c11.468,0,20.765-9.297,20.765-20.766C467.726,386.319,458.428,377.021,446.96,377.021z"/>
<path style="fill:#98364A;" d="M456.091,326.716h-60.702c13.891,0,25.153,11.26,25.153,25.153c0,13.891-11.262,25.152-25.153,25.152
	h60.702c13.891,0,25.153-11.26,25.153-25.152C481.244,337.977,469.982,326.716,456.091,326.716z"/>
<path style="fill:#E1BC6B;" d="M453.085,297.487h-60.702c8.321,0,15.021,6.942,14.624,15.349
	c-0.372,7.874-7.155,13.933-15.038,13.933h60.702c7.883,0,14.666-6.058,15.038-13.933
	C468.105,304.429,461.405,297.487,453.085,297.487z"/>
<path style="fill:#F5D66C;" d="M432.434,512H85.046c-26.956,0-48.809-21.852-48.809-48.809v-32.27
	c0-6.831,5.538-12.369,12.369-12.369h420.268c6.831,0,12.369,5.538,12.369,12.369v32.27C481.244,490.147,459.392,512,432.434,512z"
	/>
<g>
	<path style="fill:#EDBC62;" d="M302.679,53.062h-72.594c98.618,0,178.564,79.947,178.564,178.564v2.002
		c0,12.332-9.997,22.329-22.329,22.329h72.594c12.331,0,22.329-9.997,22.329-22.329v-2.002
		C481.244,133.009,401.298,53.062,302.679,53.062z"/>
	<path style="fill:#EDBC62;" d="M468.875,418.552H396.28c6.831,0,12.369,5.538,12.369,12.369v32.27
		c0,26.956-21.853,48.809-48.809,48.809h72.594c26.956,0,48.809-21.853,48.809-48.809v-32.27
		C481.244,424.091,475.706,418.552,468.875,418.552z"/>
</g>
<g>
	<path style="fill:#D79D43;" d="M159.363,143.269c4.423,0,8.007-4.02,8.007-8.982V59.443c-5.447,1.497-10.788,3.246-16.014,5.233
		v69.611C151.356,139.248,154.94,143.269,159.363,143.269z"/>
	<path style="fill:#D79D43;" d="M206.541,143.269c4.423,0,8.007-4.02,8.007-8.982V53.065c-5.399,0.008-10.738,0.266-16.014,0.742
		v80.48C198.534,139.248,202.118,143.269,206.541,143.269z"/>
	<path style="fill:#D79D43;" d="M305.082,143.269c4.423,0,8.007-4.02,8.007-8.982V53.372c-3.445-0.198-6.914-0.31-10.409-0.31
		h-5.605v81.225C297.075,139.248,300.66,143.269,305.082,143.269z"/>
	<path style="fill:#D79D43;" d="M352.827,143.269c4.423,0,8.007-4.02,8.007-8.982V62.756c-5.232-1.801-10.575-3.362-16.014-4.678
		v76.21C344.822,139.248,348.406,143.269,352.827,143.269z"/>
	<path style="fill:#D79D43;" d="M255.811,143.269c4.423,0,8.007-4.02,8.007-8.982V53.062h-16.014v81.225
		C247.804,139.248,251.389,143.269,255.811,143.269z"/>
</g>
<path style="fill:#C7CD5A;" d="M271.991,53.056h-17.752V33.092C254.238,14.816,269.054,0,287.33,0h9.341
	c4.645,0,8.411,3.766,8.411,8.411v11.554C305.083,38.24,290.267,53.056,271.991,53.056z"/>
<g>
</g>
<g>
</g>
<g>
</g>
<g>
</g>
<g>
</g>
<g>
</g>
<g>
</g>
<g>
</g>
<g>
</g>
<g>
</g>
<g>
</g>
<g>
</g>
<g>
</g>
<g>
</g>
<g>
</g>
</svg>
